<svg xmlns="http://www.w3.org/2000/svg" style="display: none;">
  <!-- GitHub -->
  <symbol id="github" viewBox="0 0 24 24">
    <path d="M12 .297c-6.627 0-12 5.373-12 12 0 5.303 3.438 9.8 8.207 11.4.6.111.827-.258.827-.577 0-.283-.01-1.034-.017-2.028-3.338.725-4.042-1.611-4.042-1.611-.545-1.379-1.333-1.743-1.333-1.743-1.088-.743.082-.728.082-.728 1.207.085 1.842 1.242 1.842 1.242 1.072 1.836 2.809 1.305 3.493 1.001.108-.778.419-1.305.762-1.605-2.665-.303-5.467-1.332-5.467-5.928 0-1.31.468-2.381 1.236-3.221-.124-.303-.537-1.528.117-3.177 0 0 1.008-.323 3.301 1.23.957-.266 1.988-.398 3.015-.403 1.028.005 2.058.137 3.015.403 2.29-1.55 3.297-1.23 3.297-1.23.656 1.649.246 2.874.122 3.177.768.84 1.236 1.911 1.236 3.221 0 4.608-2.807 5.623-5.48 5.921.43.371.822 1.098.822 2.215 0 1.594-.014 2.874-.017 3.261 0 .323.224.693.832.576 4.764-1.606 8.204-6.091 8.204-11.398 0-6.627-5.373-12-12-12z"/>
  </symbol>

  <!-- LinkedIn -->
  <symbol id="linkedin" viewBox="0 0 24 24">
  <path d="M22.23 0h-20.5c-.95 0-1.73.78-1.73 1.73v20.5c0 .95.78 1.73 1.73 1.73h20.5c.95 0 1.73-.78 1.73-1.73v-20.5c0-.95-.78-1.73-1.73-1.73zm-14.27 20.44h-3.74v-11.16h3.74v11.16zm-1.87-12.75c-1.2 0-2.18-.98-2.18-2.18s.98-2.18 2.18-2.18 2.18.98 2.18 2.18c0 1.2-.98 2.18-2.18 2.18zm13.07 12.75h-3.74v-5.75c0-1.37-.02-3.13-1.91-3.13-1.9 0-2.19 1.48-2.19 3.01v5.87h-3.74v-11.16h3.59v1.52h.05c.5-.95 1.72-1.95 3.54-1.95 3.78 0 4.48 2.48 4.48 5.71v6.88z"/>
</symbol>


  <!-- Instagram -->
  <symbol id="instagram" viewBox="0 0 24 24">
  <path d="M12 2.1c-5.5 0-6.1.02-8.2.12-2.1.1-3.4 1.04-4.6 2.24-1.24 1.2-2.09 2.5-2.37 4.6-.1 2.1-.12 2.7-.12 8.2s.02 6.1.12 8.2c.28 2.1 1.13 3.4 2.37 4.6 1.24 1.2 2.5 2.14 4.6 2.24 2.1.1 2.7.12 8.2.12s6.1-.02 8.2-.12c2.1-.1 3.4-1.04 4.6-2.24 1.24-1.2 2.09-2.5 2.37-4.6.1-2.1.12-2.7.12-8.2s-.02-6.1-.12-8.2c-.28-2.1-1.13-3.4-2.37-4.6-1.24-1.2-2.5-2.14-4.6-2.24-2.1-.1-2.7-.12-8.2-.12zm0-2c5.6 0 6.3.02 8.6.12 2.5.11 4.1 1.11 5.3 2.4 1.2 1.2 2.29 2.8 2.4 5.3.1 2.3.12 3.8.12 8.6s-.02 6.3-.12 8.6c-.11 2.5-1.2 4.1-2.4 5.3-1.2 1.2-2.8 2.29-5.3 2.4-2.3.1-3.8.12-8.6.12-5.6 0-6.3-.02-8.6-.12-2.5-.11-4.1-1.2-5.3-2.4-1.2-1.2-2.29-2.8-2.4-5.3-.1-2.3-.12-3.8-.12-8.6s.02-6.3.12-8.6c.11-2.5 1.2-4.1 2.4-5.3 1.2-1.2 2.8-2.29 5.3-2.4 2.3-.1 3.8-.12 8.6-.12zm0 6.3c-3.2 0-5.8 2.6-5.8 5.8s2.6 5.8 5.8 5.8 5.8-2.6 5.8-5.8-2.6-5.8-5.8-5.8zm0 10.3c-2.5 0-4.5-2-4.5-4.5s2-4.5 4.5-4.5 4.5 2 4.5 4.5-2 4.5-4.5 4.5zm6.3-10.5c-.8 0-1.5-.7-1.5-1.5s.7-1.5 1.5-1.5 1.5.7 1.5 1.5-.7 1.5-1.5 1.5z"/>
</symbol>



 
</svg>
